<?xml version="1.0" encoding="UTF-8" standalone="no"?>
<!-- Created with Inkscape (http://www.inkscape.org/) -->

<svg
   xmlns:dc="http://purl.org/dc/elements/1.1/"
   xmlns:cc="http://creativecommons.org/ns#"
   xmlns:rdf="http://www.w3.org/1999/02/22-rdf-syntax-ns#"
   xmlns:svg="http://www.w3.org/2000/svg"
   xmlns="http://www.w3.org/2000/svg"
   xmlns:sodipodi="http://sodipodi.sourceforge.net/DTD/sodipodi-0.dtd"
   xmlns:inkscape="http://www.inkscape.org/namespaces/inkscape"
   width="210mm"
   height="297mm"
   id="svg2"
   version="1.1"
   inkscape:version="0.48.0 r9654"
   sodipodi:docname="account.svg">
  <defs
     id="defs4" />
  <sodipodi:namedview
     id="base"
     pagecolor="#ffffff"
     bordercolor="#666666"
     borderopacity="1.0"
     inkscape:pageopacity="0.0"
     inkscape:pageshadow="2"
     inkscape:zoom="0.98994949"
     inkscape:cx="464.12617"
     inkscape:cy="1041.4442"
     inkscape:document-units="px"
     inkscape:current-layer="layer1"
     showgrid="false"
     inkscape:window-width="1600"
     inkscape:window-height="838"
     inkscape:window-x="-8"
     inkscape:window-y="-8"
     inkscape:window-maximized="1" />
  <metadata
     id="metadata7">
    <rdf:RDF>
      <cc:Work
         rdf:about="">
        <dc:format>image/svg+xml</dc:format>
        <dc:type
           rdf:resource="http://purl.org/dc/dcmitype/StillImage" />
        <dc:title></dc:title>
      </cc:Work>
    </rdf:RDF>
  </metadata>
  <g
     inkscape:label="レイヤー 1"
     inkscape:groupmode="layer"
     id="layer1">
    <path
       style="fill:#ff99c7;fill-opacity:1;fill-rule:nonzero;stroke:none"
       d="m -23.133929,224.23214 123.593749,0 c -0.14308,-0.46648 -0.3125,-0.92291 -0.3125,-1.4375 l 0,-0.5625 -123.281249,0 0,2 z"
       id="path3825"
       inkscape:connector-curvature="0" />
    <path
       style="fill:#ff99c7;fill-opacity:1;fill-rule:nonzero;stroke:none"
       d="m 947.9375,229.94643 -2.59375,0 c -0.62713,2.04456 -2.43209,3.5625 -4.6875,3.5625 l -814.4375,0 c -2.25541,0 -4.06037,-1.51794 -4.6875,-3.5625 l -123.59375,0 0,1 c 0,2.77 2.23000002,5 5,5 l 940,0 c 2.77,0 5,-2.23 5,-5 l 0,-1 z"
       id="path3823"
       inkscape:connector-curvature="0" />
    <path
       style="fill:#ff99c7;fill-opacity:1;fill-rule:nonzero;stroke:none"
       d="m 947.9375,219.01786 -2.28125,0 0,0.5625 c 0,0.51459 -0.16942,0.97102 -0.3125,1.4375 l 2.59375,0 0,-2 z"
       id="path3821"
       inkscape:connector-curvature="0" />
    <path
       style="fill:#ff99c7;fill-opacity:1;fill-rule:nonzero;stroke:none"
       d="M 2.4375 177.375 C -0.089904771 177.63014 -2.0625 179.77812 -2.0625 182.375 L -2.0625 204.375 L 121.21875 204.375 L 121.21875 184.375 C 121.21875 181.77812 123.19135 179.63014 125.71875 179.375 C 125.88724 179.35799 126.04563 179.375 126.21875 179.375 L 940.65625 179.375 C 943.42625 179.375 945.65625 181.605 945.65625 184.375 L 945.65625 204.375 L 947.9375 204.375 L 947.9375 182.375 C 947.9375 179.605 945.7075 177.375 942.9375 177.375 L 2.9375 177.375 C 2.764375 177.375 2.6059937 177.35799 2.4375 177.375 z "
       id="rect2996"
       inkscape:export-filename="C:\Users\EVA-01\Desktop\account.png"
       inkscape:export-xdpi="90"
       inkscape:export-ydpi="90" />
    <g
       id="text3770"
       style="font-size:22px;font-style:normal;font-variant:normal;font-weight:normal;font-stretch:normal;line-height:125%;letter-spacing:0px;word-spacing:0px;fill:#ffffff;fill-opacity:1;stroke:none;font-family:HGMaruGothicMPRO;-inkscape-font-specification:HGMaruGothicMPRO"
       inkscape:export-filename="C:\Users\EVA-01\Desktop\account.png"
       inkscape:export-xdpi="90"
       inkscape:export-ydpi="90">
      <text
         xml:space="preserve"
         style="font-size:22px;font-style:normal;font-variant:normal;font-weight:bold;font-stretch:normal;line-height:125%;letter-spacing:0px;word-spacing:0px;fill:#ffffff;fill-opacity:1;stroke:none;font-family:HGMaruGothicMPRO;-inkscape-font-specification:HGMaruGothicMPRO Bold;stroke-opacity:1"
         x="4.6428571"
         y="199.1479"
         id="text3827"
         sodipodi:linespacing="125%"><tspan
           sodipodi:role="line"
           id="tspan3829"
           x="4.6428571"
           y="199.1479">飲み会管理</tspan></text>
    </g>
    <path
       style="fill:#ff99c7;fill-opacity:1;fill-rule:nonzero;stroke:none"
       d="M -12.15625 77.71875 L -12.15625 130.21875 L 50 130.21875 L 50 102.375 L 27.84375 102.375 L 27.84375 77.71875 L -12.15625 77.71875 z "
       id="rect3797" />
  </g>
</svg>
